<svg width="35" height="35" viewBox="0 0 35 35" fill="none" xmlns="http://www.w3.org/2000/svg">
<path d="M17.8453 33.2492C19.9125 33.2518 21.9599 32.846 23.8697 32.0549C25.7796 31.2637 27.5142 30.103 28.974 28.6393C30.4377 27.1795 31.5985 25.4448 32.3896 23.535C33.1807 21.6252 33.5866 19.5778 33.5839 17.5106C33.5865 15.4434 33.1806 13.396 32.3895 11.4862C31.5984 9.57634 30.4377 7.84166 28.974 6.38182C27.5142 4.91815 25.7796 3.75741 23.8697 2.9663C21.9599 2.17519 19.9125 1.76931 17.8453 1.77199C15.7781 1.76935 13.7307 2.17525 11.8209 2.96636C9.91106 3.75747 8.17637 4.91819 6.71654 6.38182C5.2529 7.84166 4.09218 9.57634 3.30107 11.4862C2.50997 13.396 2.10407 15.4434 2.1067 17.5106C2.10402 19.5778 2.5099 21.6252 3.30101 23.535C4.09212 25.4448 5.25287 27.1795 6.71654 28.6393C8.17637 30.103 9.91106 31.2637 11.8209 32.0548C13.7307 32.8459 15.7781 33.2518 17.8453 33.2492Z" stroke="#767676" stroke-width="2.42132" stroke-linejoin="round"/>
<path d="M11.5499 17.5106L16.2714 22.2322L25.7146 12.7891" stroke="#767676" stroke-width="2.42132" stroke-linecap="round" stroke-linejoin="round"/>
</svg>
