<svg width="179" height="178" viewBox="0 0 179 178" fill="none" xmlns="http://www.w3.org/2000/svg">
<circle cx="89.6802" cy="89" r="89" fill="#48EB2E"/>
<path d="M120.58 123H98.5802L69.7802 70.7H69.3802C69.4468 72.1 69.5135 73.6333 69.5802 75.3C69.7135 76.9 69.8135 78.5667 69.8802 80.3C69.9468 81.9667 70.0135 83.6333 70.0802 85.3C70.1468 86.9 70.2135 88.4667 70.2802 90V123H55.0802V51.6H76.9802L105.68 103.3H105.98C105.914 101.9 105.847 100.433 105.78 98.9C105.714 97.3 105.647 95.7 105.58 94.1C105.514 92.4333 105.447 90.8333 105.38 89.3C105.38 87.7 105.347 86.1667 105.28 84.7V51.6H120.58V123Z" fill="white"/>
</svg>
