<svg width="61" height="61" viewBox="0 0 61 61" fill="none" xmlns="http://www.w3.org/2000/svg">
<path d="M30.2666 44.7943C19.3868 44.7943 10.0838 38.2848 6.1531 29.0557C10.0838 19.8266 19.3868 13.3171 30.2666 13.3171C41.1463 13.3171 50.4493 19.8266 54.38 29.0557C50.4493 38.2848 41.1463 44.7943 30.2666 44.7943ZM17.4996 29.0557C17.4996 35.9872 23.2446 41.5659 30.2666 41.5659C37.2885 41.5659 43.0335 35.9872 43.0335 29.0557C43.0335 22.1242 37.2885 16.5455 30.2666 16.5455C23.2446 16.5455 17.4996 22.1242 17.4996 29.0557ZM24.5434 29.0557C24.5434 25.9984 27.0727 23.4867 30.2666 23.4867C33.4604 23.4867 35.9897 25.9984 35.9897 29.0557C35.9897 32.113 33.4604 34.6248 30.2666 34.6248C27.0727 34.6248 24.5434 32.113 24.5434 29.0557Z" fill="#C0C0C0" stroke="#C0C0C0" stroke-width="2.42132"/>
<path d="M51.3123 8L8.00004 51.3122" stroke="#C0C0C0" stroke-width="5" stroke-linecap="round"/>
</svg>
