<svg width="62" height="62" viewBox="0 0 62 62" fill="none" xmlns="http://www.w3.org/2000/svg">
<path d="M30.9482 45.6576C20.0684 45.6576 10.7654 39.1481 6.83474 29.919C10.7654 20.6899 20.0684 14.1804 30.9482 14.1804C41.828 14.1804 51.1309 20.6899 55.0616 29.919C51.1309 39.1481 41.828 45.6576 30.9482 45.6576ZM18.1812 29.919C18.1812 36.8505 23.9263 42.4292 30.9482 42.4292C37.9701 42.4292 43.7152 36.8505 43.7152 29.919C43.7152 22.9875 37.9701 17.4088 30.9482 17.4088C23.9263 17.4088 18.1812 22.9875 18.1812 29.919ZM25.2251 29.919C25.2251 26.8617 27.7543 24.3499 30.9482 24.3499C34.1421 24.3499 36.6713 26.8617 36.6713 29.919C36.6713 32.9763 34.1421 35.488 30.9482 35.488C27.7543 35.488 25.2251 32.9763 25.2251 29.919Z" fill="#C0C0C0" stroke="#C0C0C0" stroke-width="2.42132"/>
</svg>
