<svg width="905" height="1060" viewBox="0 0 905 1060" fill="none" xmlns="http://www.w3.org/2000/svg">
<rect x="90.6833" y="309.98" width="454.744" height="618" rx="15" transform="rotate(-13.2994 90.6833 309.98)" stroke="#588539" stroke-width="10"/>
<path d="M211.688 486.708C260.098 479.011 278.345 467.982 299.688 439.708" stroke="#588539" stroke-width="10" stroke-linecap="round"/>
<path d="M511.364 397.848C464.401 383.803 443.177 385.834 411.688 402.064" stroke="#588539" stroke-width="10" stroke-linecap="round"/>
<ellipse cx="279.688" cy="523.208" rx="18" ry="21.5" fill="#D9D9D9"/>
<ellipse cx="474.688" cy="485.208" rx="18" ry="21.5" fill="#588539"/>
<ellipse cx="281.688" cy="529.208" rx="18" ry="21.5" transform="rotate(-20.9391 281.688 529.208)" fill="#588539"/>
<circle cx="612.188" cy="721.208" r="162.5" fill="white"/>
<path d="M770 721.253C770 808.245 699.209 878.798 611.844 878.798C524.479 878.798 453.688 808.245 453.688 721.253C453.688 634.261 524.479 563.708 611.844 563.708C699.209 563.708 770 634.261 770 721.253Z" stroke="#588539" stroke-width="10"/>
<path d="M738.102 721C738.102 792.245 680.346 850 609.1 850C537.855 850 480.099 792.245 480.099 721C480.099 649.755 537.855 592 609.1 592C680.346 592 738.102 649.755 738.102 721Z" stroke="#588539" stroke-width="10"/>
<path d="M698.688 855.708L715.688 874.708" stroke="#588539" stroke-width="10" stroke-linecap="round"/>
<path d="M720.688 839.708L737.688 858.708" stroke="#588539" stroke-width="10" stroke-linecap="round"/>
<path d="M748.301 852.63L711.688 882.708" stroke="#588539" stroke-width="10" stroke-linecap="round"/>
<path d="M711.168 884.409L861.442 1054.29" stroke="#588539" stroke-width="10" stroke-linecap="round"/>
<line x1="752.002" y1="853.392" x2="899.367" y2="1010.98" stroke="#588539" stroke-width="10" stroke-linecap="round"/>
<path d="M861.688 1054.71C889.682 1053.82 899.199 1042.09 899.688 1014.71" stroke="#588539" stroke-width="10" stroke-linecap="round"/>
<line x1="725.539" y1="898.824" x2="762.539" y2="868.824" stroke="#588539" stroke-width="10"/>
<line x1="108.904" y1="395.81" x2="28.8098" y2="538.096" stroke="#588539" stroke-width="10" stroke-linecap="round"/>
<line x1="146.325" y1="560.218" x2="27.2181" y2="542.675" stroke="#588539" stroke-width="10" stroke-linecap="round"/>
<path d="M597 454H686" stroke="#588539" stroke-width="10" stroke-linecap="round"/>
<path d="M686.448 454.277L746.448 575.277" stroke="#588539" stroke-width="10" stroke-linecap="round"/>
<path d="M591.352 749.469V746.557C591.352 738.508 592.015 732.092 593.341 727.31C594.714 722.527 596.703 718.692 599.307 715.804C601.911 712.868 605.083 710.193 608.824 707.778C611.807 705.884 614.458 703.967 616.778 702.026C619.146 700.037 621.016 697.906 622.389 695.634C623.762 693.361 624.449 690.78 624.449 687.892C624.449 685.098 623.786 682.636 622.46 680.506C621.134 678.375 619.312 676.741 616.991 675.605C614.719 674.421 612.186 673.83 609.392 673.83C606.598 673.83 603.971 674.469 601.509 675.747C599.094 677.026 597.105 678.848 595.543 681.216C594.027 683.536 593.246 686.353 593.199 689.668H560.528C560.67 679.724 562.967 671.58 567.418 665.236C571.916 658.891 577.858 654.204 585.244 651.173C592.631 648.096 600.775 646.557 609.676 646.557C619.43 646.557 628.095 648.072 635.67 651.102C643.294 654.133 649.283 658.607 653.639 664.526C657.995 670.444 660.173 677.688 660.173 686.259C660.173 691.893 659.226 696.865 657.332 701.173C655.438 705.482 652.787 709.294 649.378 712.608C646.016 715.875 642.063 718.858 637.517 721.557C633.966 723.64 631.007 725.818 628.639 728.091C626.319 730.364 624.567 732.968 623.384 735.903C622.2 738.792 621.608 742.343 621.608 746.557V749.469H591.352ZM607.048 796.06C601.935 796.06 597.555 794.26 593.909 790.662C590.311 787.063 588.535 782.707 588.582 777.594C588.535 772.575 590.311 768.29 593.909 764.739C597.555 761.14 601.935 759.341 607.048 759.341C611.925 759.341 616.21 761.14 619.903 764.739C623.597 768.29 625.467 772.575 625.514 777.594C625.467 781.003 624.567 784.104 622.815 786.898C621.111 789.691 618.862 791.917 616.068 793.574C613.322 795.231 610.315 796.06 607.048 796.06Z" fill="#8A9A6B"/>
<path d="M12 849H100" stroke="#8A9A6B" stroke-width="10" stroke-linecap="round"/>
<path d="M694 282H748" stroke="#8A9A6B" stroke-width="10" stroke-linecap="round"/>
<path d="M88 721H142" stroke="#CDDFAB" stroke-width="10" stroke-linecap="round"/>
<path d="M56 893L56 805" stroke="#8A9A6B" stroke-width="10" stroke-linecap="round"/>
<path d="M721 309V255" stroke="#8A9A6B" stroke-width="10" stroke-linecap="round"/>
<path d="M115 748L115 694" stroke="#CDDFAB" stroke-width="10" stroke-linecap="round"/>
<circle cx="548.5" cy="28.5" r="23.5" stroke="#8A9A6B" stroke-width="10"/>
<circle cx="850.5" cy="486.5" r="41.5" stroke="#8A9A6B" stroke-width="10"/>
<circle cx="28" cy="275" r="23" stroke="#CDDFAB" stroke-width="10"/>
</svg>
