<svg width="1251" height="1419" viewBox="0 0 1251 1419" fill="none" xmlns="http://www.w3.org/2000/svg">
<rect x="270.683" y="446.98" width="454.744" height="618" rx="15" transform="rotate(-13.2994 270.683 446.98)" stroke="#588539" stroke-width="10"/>
<path d="M391.688 623.708C440.098 616.011 458.345 604.982 479.688 576.708" stroke="#588539" stroke-width="10" stroke-linecap="round"/>
<path d="M691.364 534.848C644.401 520.803 623.177 522.834 591.688 539.064" stroke="#588539" stroke-width="10" stroke-linecap="round"/>
<ellipse cx="459.688" cy="660.208" rx="18" ry="21.5" fill="#D9D9D9"/>
<ellipse cx="654.688" cy="622.208" rx="18" ry="21.5" fill="#588539"/>
<ellipse cx="461.688" cy="666.208" rx="18" ry="21.5" transform="rotate(-20.9391 461.688 666.208)" fill="#588539"/>
<circle cx="792.188" cy="858.208" r="162.5" fill="white"/>
<path d="M950 858.253C950 945.245 879.209 1015.8 791.844 1015.8C704.479 1015.8 633.688 945.245 633.688 858.253C633.688 771.261 704.479 700.708 791.844 700.708C879.209 700.708 950 771.261 950 858.253Z" stroke="#588539" stroke-width="10"/>
<path d="M918.102 858C918.102 929.245 860.346 987 789.1 987C717.855 987 660.099 929.245 660.099 858C660.099 786.755 717.855 729 789.1 729C860.346 729 918.102 786.755 918.102 858Z" stroke="#588539" stroke-width="10"/>
<path d="M878.688 992.708L895.688 1011.71" stroke="#588539" stroke-width="10" stroke-linecap="round"/>
<path d="M900.688 976.708L917.688 995.708" stroke="#588539" stroke-width="10" stroke-linecap="round"/>
<path d="M928.301 989.63L891.688 1019.71" stroke="#588539" stroke-width="10" stroke-linecap="round"/>
<path d="M891.168 1021.41L1041.44 1191.29" stroke="#588539" stroke-width="10" stroke-linecap="round"/>
<line x1="932.002" y1="990.392" x2="1079.37" y2="1147.98" stroke="#588539" stroke-width="10" stroke-linecap="round"/>
<path d="M1041.69 1191.71C1069.68 1190.82 1079.2 1179.09 1079.69 1151.71" stroke="#588539" stroke-width="10" stroke-linecap="round"/>
<line x1="905.539" y1="1035.82" x2="942.539" y2="1005.82" stroke="#588539" stroke-width="10"/>
<line x1="288.904" y1="532.81" x2="208.81" y2="675.096" stroke="#588539" stroke-width="10" stroke-linecap="round"/>
<line x1="326.325" y1="697.218" x2="207.218" y2="679.675" stroke="#588539" stroke-width="10" stroke-linecap="round"/>
<path d="M777 591H866" stroke="#588539" stroke-width="10" stroke-linecap="round"/>
<path d="M866.448 591.277L926.448 712.277" stroke="#588539" stroke-width="10" stroke-linecap="round"/>
<path d="M771.352 886.469V883.557C771.352 875.508 772.015 869.092 773.341 864.31C774.714 859.527 776.703 855.692 779.307 852.804C781.911 849.868 785.083 847.193 788.824 844.778C791.807 842.884 794.458 840.967 796.778 839.026C799.146 837.037 801.016 834.906 802.389 832.634C803.762 830.361 804.449 827.78 804.449 824.892C804.449 822.098 803.786 819.636 802.46 817.506C801.134 815.375 799.312 813.741 796.991 812.605C794.719 811.421 792.186 810.83 789.392 810.83C786.598 810.83 783.971 811.469 781.509 812.747C779.094 814.026 777.105 815.848 775.543 818.216C774.027 820.536 773.246 823.353 773.199 826.668H740.528C740.67 816.724 742.967 808.58 747.418 802.236C751.916 795.891 757.858 791.204 765.244 788.173C772.631 785.096 780.775 783.557 789.676 783.557C799.43 783.557 808.095 785.072 815.67 788.102C823.294 791.133 829.283 795.607 833.639 801.526C837.995 807.444 840.173 814.688 840.173 823.259C840.173 828.893 839.226 833.865 837.332 838.173C835.438 842.482 832.787 846.294 829.378 849.608C826.016 852.875 822.063 855.858 817.517 858.557C813.966 860.64 811.007 862.818 808.639 865.091C806.319 867.364 804.567 869.968 803.384 872.903C802.2 875.792 801.608 879.343 801.608 883.557V886.469H771.352ZM787.048 933.06C781.935 933.06 777.555 931.26 773.909 927.662C770.311 924.063 768.535 919.707 768.582 914.594C768.535 909.575 770.311 905.29 773.909 901.739C777.555 898.14 781.935 896.341 787.048 896.341C791.925 896.341 796.21 898.14 799.903 901.739C803.597 905.29 805.467 909.575 805.514 914.594C805.467 918.003 804.567 921.104 802.815 923.898C801.111 926.691 798.862 928.917 796.068 930.574C793.322 932.231 790.315 933.06 787.048 933.06Z" fill="#8A9A6B"/>
<path d="M192 986H280" stroke="#8A9A6B" stroke-width="10" stroke-linecap="round"/>
<path d="M874 419H928" stroke="#8A9A6B" stroke-width="10" stroke-linecap="round"/>
<path d="M268 858H322" stroke="#CDDFAB" stroke-width="10" stroke-linecap="round"/>
<path d="M236 1030L236 942" stroke="#8A9A6B" stroke-width="10" stroke-linecap="round"/>
<path d="M901 446V392" stroke="#8A9A6B" stroke-width="10" stroke-linecap="round"/>
<path d="M295 885V831" stroke="#CDDFAB" stroke-width="10" stroke-linecap="round"/>
<circle cx="728.5" cy="165.5" r="23.5" stroke="#8A9A6B" stroke-width="10"/>
<circle cx="1030.5" cy="623.5" r="41.5" stroke="#8A9A6B" stroke-width="10"/>
<circle cx="208" cy="412" r="23" stroke="#CDDFAB" stroke-width="10"/>
<path d="M183.968 1142.66C190.256 1142.66 194.768 1148.57 194.768 1157.78C194.768 1167.05 190.256 1172.95 183.968 1172.95C177.632 1172.95 173.168 1167.05 173.168 1157.78C173.168 1148.57 177.632 1142.66 183.968 1142.66ZM183.968 1146.26C179.792 1146.26 176.96 1150.78 176.96 1157.78C176.96 1164.84 179.792 1169.45 183.968 1169.45C188.144 1169.45 190.976 1164.84 190.976 1157.78C190.976 1150.78 188.144 1146.26 183.968 1146.26ZM204.176 1139.3H208.112V1182.79H204.176V1139.3ZM193.472 1155.86H205.904V1159.13H193.472V1155.86ZM245.932 1139.3H249.916V1182.79H245.932V1139.3ZM248.956 1156.58H257.02V1159.94H248.956V1156.58ZM218.284 1169.02H221.74C229.9 1169.02 235.564 1168.73 242.14 1167.48L242.572 1170.79C235.804 1171.99 230.044 1172.33 221.74 1172.33H218.284V1169.02ZM218.188 1143.38H237.82V1158.94H222.22V1170.36H218.284V1155.67H233.884V1146.65H218.188V1143.38ZM267.312 1168.96V1168.64C267.335 1166.52 267.545 1164.84 267.943 1163.59C268.352 1162.34 268.932 1161.33 269.682 1160.56C270.432 1159.78 271.335 1159.08 272.392 1158.44C273.074 1158.01 273.688 1157.53 274.233 1156.99C274.778 1156.46 275.21 1155.85 275.528 1155.15C275.847 1154.46 276.006 1153.69 276.006 1152.85C276.006 1151.84 275.767 1150.97 275.29 1150.23C274.812 1149.49 274.176 1148.92 273.381 1148.52C272.597 1148.11 271.722 1147.91 270.756 1147.91C269.881 1147.91 269.045 1148.09 268.25 1148.45C267.455 1148.82 266.795 1149.39 266.273 1150.16C265.75 1150.92 265.449 1151.9 265.369 1153.11H260.188C260.267 1151.06 260.784 1149.34 261.739 1147.93C262.693 1146.51 263.955 1145.43 265.523 1144.7C267.102 1143.98 268.847 1143.61 270.756 1143.61C272.847 1143.61 274.676 1144.01 276.244 1144.79C277.813 1145.56 279.028 1146.65 279.892 1148.05C280.767 1149.43 281.205 1151.05 281.205 1152.9C281.205 1154.18 281.006 1155.32 280.608 1156.35C280.21 1157.36 279.642 1158.26 278.903 1159.06C278.176 1159.85 277.301 1160.56 276.278 1161.17C275.313 1161.77 274.528 1162.4 273.926 1163.05C273.335 1163.69 272.903 1164.46 272.631 1165.35C272.358 1166.23 272.21 1167.33 272.188 1168.64V1168.96H267.312ZM269.886 1179.32C268.955 1179.32 268.153 1178.99 267.483 1178.34C266.813 1177.66 266.477 1176.86 266.477 1175.91C266.477 1174.98 266.813 1174.19 267.483 1173.53C268.153 1172.86 268.955 1172.52 269.886 1172.52C270.807 1172.52 271.602 1172.86 272.273 1173.53C272.955 1174.19 273.295 1174.98 273.295 1175.91C273.295 1176.54 273.136 1177.11 272.818 1177.64C272.511 1178.15 272.102 1178.56 271.591 1178.86C271.08 1179.17 270.511 1179.32 269.886 1179.32ZM310.154 1142.66C316.538 1142.66 321.05 1148.57 321.05 1157.78C321.05 1167.05 316.538 1172.95 310.154 1172.95C303.77 1172.95 299.258 1167.05 299.258 1157.78C299.258 1148.57 303.77 1142.66 310.154 1142.66ZM310.154 1146.26C305.93 1146.26 303.05 1150.78 303.05 1157.78C303.05 1164.84 305.93 1169.45 310.154 1169.45C314.33 1169.45 317.258 1164.84 317.258 1157.78C317.258 1150.78 314.33 1146.26 310.154 1146.26ZM327.962 1139.35H331.994V1182.74H327.962V1139.35ZM331.034 1156.68H339.098V1160.04H331.034V1156.68ZM354.311 1143.82H357.623V1147.27C357.623 1155.24 352.727 1161.91 345.431 1164.5L343.367 1161.38C349.895 1159.08 354.311 1153.42 354.311 1147.27V1143.82ZM355.079 1143.82H358.391V1147.27C358.391 1153.13 362.903 1158.41 369.335 1160.57L367.271 1163.69C360.071 1161.24 355.079 1154.86 355.079 1147.27V1143.82ZM374.327 1139.35H378.359V1165.61H374.327V1139.35ZM349.367 1167.91H378.359V1182.74H374.327V1171.18H349.367V1167.91ZM344.423 1142.38H368.183V1145.59H344.423V1142.38ZM417.026 1142.33H420.482V1145.64C420.482 1155.1 411.698 1162.44 403.01 1164.41L401.234 1161.1C408.866 1159.66 417.026 1153.03 417.026 1145.64V1142.33ZM417.746 1142.33H421.202V1145.64C421.202 1153.08 429.41 1159.66 436.994 1161.1L435.218 1164.41C426.578 1162.44 417.746 1155.14 417.746 1145.64V1142.33ZM399.65 1173.62H438.962V1176.89H399.65V1173.62ZM448.462 1143.77H476.014V1147.03H448.462V1143.77ZM443.806 1173.38H483.022V1176.74H443.806V1173.38ZM474.286 1143.77H478.174V1149.1C478.174 1155.48 478.174 1161.38 476.35 1170.26L472.414 1169.88C474.286 1161.53 474.286 1155.34 474.286 1149.1V1143.77ZM475.294 1155.77V1158.74L447.886 1160.23L447.31 1156.92L475.294 1155.77ZM520.699 1139.35H524.491V1163.4H520.699V1139.35ZM513.835 1149.62H522.043V1152.89H513.835V1149.62ZM511.147 1140.12H514.891V1163.02H511.147V1140.12ZM496.075 1165.42H500.011V1170.36H520.651V1165.42H524.491V1182.17H496.075V1165.42ZM500.011 1173.48V1178.9H520.651V1173.48H500.011ZM489.931 1158.74H492.715C498.811 1158.74 503.323 1158.5 508.651 1157.45L509.035 1160.66C503.563 1161.77 499.003 1161.96 492.715 1161.96H489.931V1158.74ZM489.835 1141.9H506.155V1153.13H493.771V1161.24H489.931V1150.1H502.315V1145.11H489.835V1141.9ZM563.607 1139.3H567.591V1182.79H563.607V1139.3ZM544.695 1142.66C551.127 1142.66 555.735 1148.57 555.735 1157.78C555.735 1167.05 551.127 1172.95 544.695 1172.95C538.311 1172.95 533.703 1167.05 533.703 1157.78C533.703 1148.57 538.311 1142.66 544.695 1142.66ZM544.695 1146.26C540.471 1146.26 537.495 1150.78 537.495 1157.78C537.495 1164.84 540.471 1169.45 544.695 1169.45C548.967 1169.45 551.895 1164.84 551.895 1157.78C551.895 1150.78 548.967 1146.26 544.695 1146.26ZM593.922 1164.79H597.666V1170.22H605.25V1164.79H608.946V1182.17H593.922V1164.79ZM597.666 1173.19V1179.05H605.25V1173.19H597.666ZM617.346 1164.55H620.418V1168.15C620.418 1174.06 617.442 1180.01 611.442 1182.55L609.426 1179.53C614.658 1177.32 617.346 1172.57 617.346 1168.15V1164.55ZM618.162 1164.55H621.234V1168.15C621.234 1172.81 623.922 1177.51 629.154 1179.53L627.138 1182.55C621.09 1180.06 618.162 1174.3 618.162 1168.15V1164.55ZM610.77 1149.53H622.434V1152.84H610.77V1149.53ZM600.786 1141.27C607.266 1141.27 611.97 1145.3 611.97 1151.26C611.97 1157.16 607.266 1161.24 600.786 1161.24C594.306 1161.24 589.602 1157.16 589.602 1151.26C589.602 1145.3 594.306 1141.27 600.786 1141.27ZM600.786 1144.58C596.514 1144.58 593.442 1147.32 593.442 1151.26C593.442 1155.14 596.514 1157.93 600.786 1157.93C605.058 1157.93 608.13 1155.14 608.13 1151.26C608.13 1147.32 605.058 1144.58 600.786 1144.58ZM620.658 1139.35H624.642V1162.34H620.658V1139.35ZM644.702 1142.66C650.99 1142.66 655.502 1148.57 655.502 1157.78C655.502 1167.05 650.99 1172.95 644.702 1172.95C638.366 1172.95 633.902 1167.05 633.902 1157.78C633.902 1148.57 638.366 1142.66 644.702 1142.66ZM644.702 1146.26C640.526 1146.26 637.694 1150.78 637.694 1157.78C637.694 1164.84 640.526 1169.45 644.702 1169.45C648.878 1169.45 651.71 1164.84 651.71 1157.78C651.71 1150.78 648.878 1146.26 644.702 1146.26ZM664.91 1139.3H668.846V1182.79H664.91V1139.3ZM654.206 1155.86H666.638V1159.13H654.206V1155.86ZM686.891 1161.67H690.827V1174.68H686.891V1161.67ZM702.923 1161.67H706.907V1174.68H702.923V1161.67ZM677.291 1173.91H716.603V1177.22H677.291V1173.91ZM696.875 1142.09C706.043 1142.09 712.619 1146.46 712.619 1153.27C712.619 1160.04 706.043 1164.41 696.875 1164.41C687.659 1164.41 681.083 1160.04 681.083 1153.27C681.083 1146.46 687.659 1142.09 696.875 1142.09ZM696.875 1145.26C689.915 1145.26 684.923 1148.42 684.923 1153.27C684.923 1158.07 689.915 1161.24 696.875 1161.24C703.835 1161.24 708.779 1158.07 708.779 1153.27C708.779 1148.42 703.835 1145.26 696.875 1145.26ZM728.899 1144.09L728.456 1168.96H723.734L723.291 1144.09H728.899ZM726.104 1179.32C725.161 1179.32 724.354 1178.99 723.683 1178.34C723.013 1177.66 722.683 1176.86 722.695 1175.91C722.683 1174.98 723.013 1174.19 723.683 1173.53C724.354 1172.86 725.161 1172.52 726.104 1172.52C727.024 1172.52 727.82 1172.86 728.49 1173.53C729.161 1174.19 729.501 1174.98 729.513 1175.91C729.501 1176.54 729.337 1177.11 729.018 1177.64C728.712 1178.15 728.303 1178.56 727.791 1178.86C727.28 1179.17 726.717 1179.32 726.104 1179.32ZM183.92 1200.66C190.304 1200.66 194.816 1206.57 194.816 1215.78C194.816 1225.05 190.304 1230.95 183.92 1230.95C177.536 1230.95 173.024 1225.05 173.024 1215.78C173.024 1206.57 177.536 1200.66 183.92 1200.66ZM183.92 1204.26C179.696 1204.26 176.816 1208.78 176.816 1215.78C176.816 1222.84 179.696 1227.45 183.92 1227.45C188.096 1227.45 191.024 1222.84 191.024 1215.78C191.024 1208.78 188.096 1204.26 183.92 1204.26ZM204.656 1208.25H212.624V1211.61H204.656V1208.25ZM204.656 1221.16H212.624V1224.52H204.656V1221.16ZM201.728 1197.35H205.76V1240.74H201.728V1197.35ZM221.452 1200.18H248.572V1203.4H221.452V1200.18ZM216.556 1218.81H255.772V1222.07H216.556V1218.81ZM234.076 1220.97H238.06V1240.79H234.076V1220.97ZM246.7 1200.18H250.588V1203.93C250.588 1208.44 250.588 1213.53 248.956 1220.87L245.02 1220.34C246.7 1213.34 246.7 1208.3 246.7 1203.93V1200.18ZM278.36 1211.99H308.024V1215.26H278.36V1211.99ZM278.36 1199.56H282.344V1213.53H278.36V1199.56ZM273.416 1221.45H312.632V1224.76H273.416V1221.45ZM283.496 1222.7H287.48V1240.74H283.496V1222.7ZM298.52 1222.7H302.456V1240.74H298.52V1222.7ZM334.948 1200.33H338.404V1203.64C338.404 1213.1 329.62 1220.44 320.932 1222.41L319.156 1219.1C326.788 1217.66 334.948 1211.03 334.948 1203.64V1200.33ZM335.668 1200.33H339.124V1203.64C339.124 1211.08 347.332 1217.66 354.916 1219.1L353.14 1222.41C344.5 1220.44 335.668 1213.14 335.668 1203.64V1200.33ZM317.572 1231.62H356.884V1234.89H317.572V1231.62ZM361.68 1217.51H401.04V1220.54H361.68V1217.51ZM366.336 1224.04H396.096V1233.3H370.416V1238.39H366.48V1230.57H392.208V1226.87H366.336V1224.04ZM366.48 1237.34H397.488V1240.22H366.48V1237.34ZM366.672 1198.6H395.952V1207.62H370.704V1212.33H366.768V1204.94H392.064V1201.43H366.672V1198.6ZM366.768 1211.37H396.768V1214.25H366.768V1211.37ZM435.964 1200.33H439.42V1203.64C439.42 1213.1 430.636 1220.44 421.948 1222.41L420.172 1219.1C427.804 1217.66 435.964 1211.03 435.964 1203.64V1200.33ZM436.684 1200.33H440.14V1203.64C440.14 1211.08 448.348 1217.66 455.932 1219.1L454.156 1222.41C445.516 1220.44 436.684 1213.14 436.684 1203.64V1200.33ZM418.588 1231.62H457.9V1234.89H418.588V1231.62ZM467.4 1201.77H494.952V1205.03H467.4V1201.77ZM462.744 1231.38H501.96V1234.74H462.744V1231.38ZM493.224 1201.77H497.112V1207.1C497.112 1213.48 497.112 1219.38 495.288 1228.26L491.352 1227.88C493.224 1219.53 493.224 1213.34 493.224 1207.1V1201.77ZM494.232 1213.77V1216.74L466.824 1218.23L466.248 1214.92L494.232 1213.77ZM539.636 1197.35H543.428V1221.4H539.636V1197.35ZM532.772 1207.62H540.98V1210.89H532.772V1207.62ZM530.084 1198.12H533.828V1221.02H530.084V1198.12ZM515.012 1223.42H518.948V1228.36H539.588V1223.42H543.428V1240.17H515.012V1223.42ZM518.948 1231.48V1236.9H539.588V1231.48H518.948ZM508.868 1216.74H511.652C517.748 1216.74 522.26 1216.5 527.588 1215.45L527.972 1218.66C522.5 1219.77 517.94 1219.96 511.652 1219.96H508.868V1216.74ZM508.772 1199.9H525.092V1211.13H512.708V1219.24H508.868V1208.1H521.252V1203.11H508.772V1199.9ZM563.663 1204.74H585.167V1208.01H563.663V1204.74ZM574.415 1210.89C579.839 1210.89 583.775 1214.97 583.775 1220.82C583.775 1226.63 579.839 1230.71 574.415 1230.71C569.039 1230.71 565.103 1226.63 565.103 1220.82C565.103 1214.97 569.039 1210.89 574.415 1210.89ZM574.415 1214.3C571.103 1214.3 568.703 1216.98 568.703 1220.82C568.703 1224.66 571.103 1227.35 574.415 1227.35C577.775 1227.35 580.223 1224.66 580.223 1220.82C580.223 1216.98 577.775 1214.3 574.415 1214.3ZM596.639 1197.35H600.479V1240.74H596.639V1197.35ZM589.727 1215.59H597.935V1218.9H589.727V1215.59ZM587.375 1198.31H591.119V1238.63H587.375V1198.31ZM572.495 1198.6H576.431V1206.76H572.495V1198.6ZM607.916 1231.91H647.228V1235.22H607.916V1231.91ZM625.484 1221.54H629.468V1232.87H625.484V1221.54ZM612.524 1200.42H616.46V1208.15H638.588V1200.42H642.524V1222.6H612.524V1200.42ZM616.46 1211.37V1219.34H638.588V1211.37H616.46ZM669.16 1212.86H677.464V1216.17H669.16V1212.86ZM661.048 1201.43H664.168V1209.69C664.168 1218.76 660.376 1227.54 654.04 1231.43L651.544 1228.41C657.496 1224.9 661.048 1217.13 661.048 1209.69V1201.43ZM661.816 1201.43H664.888V1209.54C664.888 1216.5 668.152 1223.9 673.864 1227.35L671.56 1230.47C665.32 1226.63 661.816 1217.99 661.816 1209.54V1201.43ZM685.096 1197.35H688.936V1240.74H685.096V1197.35ZM676.312 1198.26H680.056V1238.58H676.312V1198.26ZM705.828 1219.67H709.764V1232.68H705.828V1219.67ZM721.86 1219.67H725.844V1232.68H721.86V1219.67ZM696.228 1231.91H735.54V1235.22H696.228V1231.91ZM715.812 1200.09C724.98 1200.09 731.556 1204.46 731.556 1211.27C731.556 1218.04 724.98 1222.41 715.812 1222.41C706.596 1222.41 700.02 1218.04 700.02 1211.27C700.02 1204.46 706.596 1200.09 715.812 1200.09ZM715.812 1203.26C708.852 1203.26 703.86 1206.42 703.86 1211.27C703.86 1216.07 708.852 1219.24 715.812 1219.24C722.772 1219.24 727.716 1216.07 727.716 1211.27C727.716 1206.42 722.772 1203.26 715.812 1203.26ZM757.472 1237.32C756.54 1237.32 755.739 1236.99 755.068 1236.34C754.398 1235.66 754.062 1234.86 754.062 1233.91C754.062 1232.98 754.398 1232.19 755.068 1231.53C755.739 1230.86 756.54 1230.52 757.472 1230.52C758.403 1230.52 759.205 1230.86 759.875 1231.53C760.545 1232.19 760.881 1232.98 760.881 1233.91C760.881 1234.54 760.722 1235.11 760.403 1235.64C760.097 1236.15 759.688 1236.56 759.176 1236.86C758.665 1237.17 758.097 1237.32 757.472 1237.32ZM757.472 1218.27C756.54 1218.27 755.739 1217.93 755.068 1217.26C754.398 1216.59 754.062 1215.79 754.062 1214.86C754.062 1213.93 754.398 1213.13 755.068 1212.47C755.739 1211.8 756.54 1211.47 757.472 1211.47C758.403 1211.47 759.205 1211.8 759.875 1212.47C760.545 1213.13 760.881 1213.93 760.881 1214.86C760.881 1215.48 760.722 1216.06 760.403 1216.58C760.097 1217.09 759.688 1217.5 759.176 1217.81C758.665 1218.11 758.097 1218.27 757.472 1218.27ZM777.509 1222.51C777.509 1226.8 776.946 1230.73 775.821 1234.32C774.696 1237.91 773.054 1241.23 770.895 1244.26H766.224C767.065 1243.14 767.849 1241.76 768.577 1240.12C769.304 1238.48 769.94 1236.69 770.486 1234.75C771.031 1232.8 771.457 1230.77 771.764 1228.68C772.071 1226.59 772.224 1224.53 772.224 1222.51C772.224 1219.82 771.957 1217.09 771.423 1214.31C770.889 1211.54 770.168 1208.97 769.259 1206.59C768.349 1204.22 767.338 1202.28 766.224 1200.78H770.895C773.054 1203.81 774.696 1207.12 775.821 1210.72C776.946 1214.31 777.509 1218.24 777.509 1222.51Z" fill="black"/>
</svg>
