<svg width="44" height="59" viewBox="0 0 44 59" fill="none" xmlns="http://www.w3.org/2000/svg">
<path d="M39.4826 0H4.38696C3.22347 0 2.10763 0.440183 1.28491 1.22371C0.462197 2.00724 1.0599e-07 3.06994 1.0599e-07 4.17801V56.7016C-0.000112586 57.0213 0.0896395 57.3352 0.259937 57.6107C0.430234 57.8861 0.674865 58.1132 0.968425 58.2682C1.26198 58.4232 1.59377 58.5006 1.92932 58.4922C2.26487 58.4838 2.59195 58.3901 2.87659 58.2206L21.9317 46.8803L40.993 58.2206C41.2777 58.3901 41.6047 58.4838 41.9403 58.4922C42.2758 58.5006 42.6076 58.4232 42.9012 58.2682C43.1947 58.1132 43.4394 57.8861 43.6097 57.6107C43.78 57.3352 43.8697 57.0213 43.8696 56.7016V4.17801C43.8696 3.06994 43.4074 2.00724 42.5847 1.22371C41.762 0.440183 40.6461 0 39.4826 0ZM40.1093 53.4696L22.9281 43.2454C22.6293 43.0676 22.284 42.9733 21.9317 42.9733C21.5793 42.9733 21.234 43.0676 20.9352 43.2454L3.76025 53.4696V4.17801C3.76025 4.01972 3.82628 3.8679 3.94381 3.75597C4.06134 3.64404 4.22075 3.58116 4.38696 3.58116H39.4826C39.6489 3.58116 39.8083 3.64404 39.9258 3.75597C40.0433 3.8679 40.1093 4.01972 40.1093 4.17801V53.4696Z" fill="black"/>
</svg>
