<svg width="59" height="59" viewBox="0 0 59 59" fill="none" xmlns="http://www.w3.org/2000/svg">
<path d="M49.0429 40.4753C47.7665 40.48 46.5042 40.7317 45.3318 41.2155C44.1595 41.6993 43.1012 42.4051 42.2204 43.2906L19.1187 32.2111C19.687 30.5597 19.687 28.7769 19.1187 27.1255L42.2583 15.8462C43.9158 17.5202 46.1634 18.5437 48.5644 18.7179C50.9654 18.8921 53.3482 18.2045 55.2496 16.7887C57.1511 15.3729 58.4354 13.3302 58.8529 11.0574C59.2704 8.78469 58.7913 6.44437 57.5087 4.49133C56.226 2.5383 54.2316 1.11208 51.9129 0.489895C49.5942 -0.132293 47.117 0.0939963 44.9627 1.12478C42.8084 2.15556 41.1309 3.9172 40.2563 6.06729C39.3818 8.21738 39.3726 10.6023 40.2305 12.7585L17.3184 23.9288C16.0809 22.4784 14.4057 21.4303 12.5224 20.9281C10.639 20.426 8.63972 20.4944 6.79853 21.124C4.95734 21.7536 3.36439 22.9135 2.23804 24.4448C1.1117 25.9761 0.50708 27.8038 0.50708 29.6774C0.50708 31.5509 1.1117 33.3786 2.23804 34.9099C3.36439 36.4412 4.95734 37.6012 6.79853 38.2308C8.63972 38.8604 10.639 38.9288 12.5224 38.4266C14.4057 37.9245 16.0809 36.8764 17.3184 35.426L40.1737 46.4509C39.7875 47.4447 39.5886 48.4963 39.5862 49.5568C39.5862 51.353 40.1419 53.1088 41.1831 54.6022C42.2243 56.0957 43.7042 57.2597 45.4357 57.947C47.1671 58.6344 49.0724 58.8142 50.9105 58.4638C52.7486 58.1134 54.437 57.2485 55.7622 55.9784C57.0874 54.7083 57.9898 53.0902 58.3555 51.3285C58.7211 49.5669 58.5334 47.7409 57.8162 46.0815C57.0991 44.422 55.8845 43.0037 54.3263 42.0058C52.768 41.0079 50.936 40.4753 49.0619 40.4753H49.0429ZM49.0429 4.14926C50.1674 4.14926 51.2666 4.46884 52.2016 5.06757C53.1365 5.6663 53.8652 6.51731 54.2955 7.51296C54.7259 8.50862 54.8384 9.60421 54.6191 10.6612C54.3997 11.7182 53.8582 12.6891 53.0631 13.4511C52.268 14.2132 51.2549 14.7321 50.1521 14.9424C49.0492 15.1526 47.9061 15.0447 46.8672 14.6323C45.8283 14.2199 44.9404 13.5215 44.3157 12.6254C43.691 11.7293 43.3575 10.6759 43.3575 9.59817C43.3575 8.15303 43.9565 6.76708 45.0227 5.74521C46.0889 4.72334 47.5351 4.14926 49.0429 4.14926ZM10.1358 35.0264C9.01134 35.0264 7.91212 34.7068 6.97716 34.1081C6.0422 33.5093 5.31349 32.6583 4.88317 31.6627C4.45286 30.667 4.34027 29.5714 4.55964 28.5145C4.77902 27.4575 5.3205 26.4866 6.11561 25.7245C6.91073 24.9625 7.92377 24.4435 9.02664 24.2333C10.1295 24.023 11.2726 24.1309 12.3115 24.5434C13.3504 24.9558 14.2383 25.6542 14.863 26.5502C15.4878 27.4463 15.8212 28.4998 15.8212 29.5775C15.8212 31.0226 15.2222 32.4086 14.156 33.4304C13.0898 34.4523 11.6437 35.0264 10.1358 35.0264ZM49.0429 55.0057C47.9184 55.0057 46.8192 54.6861 45.8843 54.0874C44.9493 53.4887 44.2206 52.6377 43.7903 51.642C43.36 50.6464 43.2474 49.5508 43.4668 48.4938C43.6861 47.4368 44.2276 46.4659 45.0227 45.7038C45.8178 44.9418 46.8309 44.4228 47.9337 44.2126C49.0366 44.0023 50.1798 44.1103 51.2186 44.5227C52.2575 44.9351 53.1454 45.6335 53.7702 46.5296C54.3949 47.4256 54.7283 48.4791 54.7283 49.5568C54.7283 51.0019 54.1293 52.3879 53.0631 53.4098C51.9969 54.4316 50.5508 55.0057 49.0429 55.0057Z" fill="black"/>
</svg>
