<svg width="43" height="46" viewBox="0 0 43 46" fill="none" xmlns="http://www.w3.org/2000/svg">
<path d="M39.2764 0.569336H3.6931C2.74937 0.569336 1.84429 0.96053 1.17698 1.65686C0.50966 2.35319 0.134766 3.29762 0.134766 4.28238V41.4128C0.134766 42.3976 0.50966 43.342 1.17698 44.0383C1.84429 44.7347 2.74937 45.1259 3.6931 45.1259H39.2764C40.2202 45.1259 41.1252 44.7347 41.7926 44.0383C42.4599 43.342 42.8348 42.3976 42.8348 41.4128V4.28238C42.8348 3.29762 42.4599 2.35319 41.7926 1.65686C41.1252 0.96053 40.2202 0.569336 39.2764 0.569336ZM3.6931 41.4128V4.28238H39.2764V41.4128H3.6931Z" fill="#588539"/>
</svg>
