<svg width="43" height="46" viewBox="0 0 43 46" fill="none" xmlns="http://www.w3.org/2000/svg">
<path d="M39.2764 0.604492H3.6931C2.74937 0.604492 1.84429 0.995687 1.17698 1.69202C0.50966 2.38835 0.134766 3.33278 0.134766 4.31754V41.448C0.134766 42.4327 0.50966 43.3772 1.17698 44.0735C1.84429 44.7698 2.74937 45.161 3.6931 45.161H39.2764C40.2202 45.161 41.1252 44.7698 41.7926 44.0735C42.4599 43.3772 42.8348 42.4327 42.8348 41.448V4.31754C42.8348 3.33278 42.4599 2.38835 41.7926 1.69202C41.1252 0.995687 40.2202 0.604492 39.2764 0.604492ZM3.6931 41.448V4.31754H39.2764V41.448H3.6931Z" fill="#588539"/>
<rect x="3" y="4" width="37" height="38" fill="#588539"/>
<path d="M32.3367 12.7333C32.8551 12.2578 33.545 11.9949 34.2608 12.0001C34.9765 12.0053 35.6622 12.2782 36.1731 12.7613C36.684 13.2443 36.9801 13.8997 36.999 14.5891C37.018 15.2785 36.7582 15.948 36.2745 16.4564L21.5907 34.15C21.3382 34.4121 21.0335 34.6224 20.6947 34.7683C20.3559 34.9143 19.9901 34.9929 19.6191 34.9995C19.248 35.0062 18.8794 34.9406 18.5353 34.8068C18.1911 34.6731 17.8785 34.4738 17.6161 34.221L7.87848 24.8387C7.6073 24.5953 7.3898 24.3017 7.23894 23.9754C7.08809 23.6492 7.00697 23.2971 7.00043 22.94C6.99389 22.5829 7.06206 22.2283 7.20088 21.8971C7.3397 21.566 7.54632 21.2652 7.80842 21.0126C8.07051 20.7601 8.38271 20.561 8.7264 20.4273C9.07008 20.2935 9.4382 20.2278 9.8088 20.2341C10.1794 20.2404 10.5449 20.3186 10.8835 20.464C11.222 20.6093 11.5267 20.8189 11.7794 21.0801L19.4857 28.5016L32.2668 12.8113L32.3367 12.7333Z" fill="#F8F8F8"/>
</svg>
