<svg width="35" height="35" viewBox="0 0 35 35" fill="none" xmlns="http://www.w3.org/2000/svg">
<path d="M17.7386 33.48C19.8058 33.4827 21.8532 33.0767 23.763 32.2856C25.6729 31.4944 27.4075 30.3335 28.8674 28.8697C30.331 27.4098 31.4918 25.675 32.2829 23.765C33.074 21.8549 33.4799 19.8074 33.4772 17.74C33.4798 15.6726 33.0739 13.6251 32.2828 11.7151C31.4917 9.80506 30.331 8.07022 28.8674 6.61025C27.4075 5.14646 25.6729 3.98561 23.763 3.19443C21.8532 2.40325 19.8058 1.99733 17.7386 2.00001C15.6714 1.99738 13.624 2.40331 11.7142 3.19449C9.80437 3.98567 8.06968 5.14649 6.60985 6.61025C5.14621 8.07022 3.98549 9.80506 3.19439 11.7151C2.40328 13.6251 1.99738 15.6726 2.00001 17.74C1.99733 19.8074 2.40321 21.8549 3.19432 23.765C3.98544 25.675 5.14618 27.4098 6.60985 28.8697C8.06968 30.3335 9.80437 31.4943 11.7142 32.2855C13.624 33.0767 15.6714 33.4826 17.7386 33.48Z" fill="#588539" stroke="white" stroke-width="2.42132" stroke-linejoin="round"/>
<path d="M11.4432 17.7401L16.1648 22.4621L25.6079 13.0181" stroke="white" stroke-width="2.42132" stroke-linecap="round" stroke-linejoin="round"/>
</svg>
