<svg width="59" height="59" viewBox="0 0 59 59" fill="none" xmlns="http://www.w3.org/2000/svg">
<path d="M42.543 0.491211C37.1507 0.491211 32.4295 3.19714 29.4866 7.77102C26.5437 3.19714 21.8225 0.491211 16.4301 0.491211C12.1378 0.496857 8.02261 2.48915 4.98745 6.03101C1.95229 9.57286 0.245011 14.375 0.240173 19.384C0.240173 40.7145 27.3427 57.98 28.4969 58.6931C28.8011 58.8841 29.1411 58.984 29.4866 58.984C29.832 58.984 30.172 58.8841 30.4763 58.6931C31.6304 57.98 58.733 40.7145 58.733 19.384C58.7281 14.375 57.0209 9.57286 53.9857 6.03101C50.9505 2.48915 46.8354 0.496857 42.543 0.491211ZM29.4866 53.7566C24.7184 50.5144 4.41823 35.7445 4.41823 19.384C4.42238 15.6679 5.68925 12.1053 7.94102 9.47765C10.1928 6.84996 13.2457 5.3716 16.4301 5.36676C21.5091 5.36676 25.7733 8.52368 27.5542 13.5943C27.7116 14.0414 27.9794 14.4238 28.3234 14.6929C28.6675 14.9621 29.0724 15.1058 29.4866 15.1058C29.9008 15.1058 30.3057 14.9621 30.6497 14.6929C30.9938 14.4238 31.2615 14.0414 31.4189 13.5943C33.1998 8.51454 37.4641 5.36676 42.543 5.36676C45.7275 5.3716 48.7804 6.84996 51.0321 9.47765C53.2839 12.1053 54.5508 15.6679 54.5549 19.384C54.5549 35.7201 34.2496 50.5113 29.4866 53.7566Z" fill="black"/>
</svg>
