<svg width="61" height="61" viewBox="0 0 61 61" fill="none" xmlns="http://www.w3.org/2000/svg">
<path d="M55.7674 60.5274L34.6027 39.3428C32.9229 40.6879 30.9912 41.7527 28.8076 42.5373C26.6239 43.3219 24.3003 43.7142 21.8366 43.7142C15.7336 43.7142 10.5689 41.598 6.3427 37.3656C2.11648 33.1332 0.00224143 27.9637 1.7775e-06 21.8571C-0.00223788 15.7506 2.112 10.5811 6.3427 6.34865C10.5734 2.11622 15.7381 0 21.8366 0C27.9352 0 33.101 2.11622 37.3339 6.34865C41.5669 10.5811 43.68 15.7506 43.6733 21.8571C43.6733 24.3231 43.2813 26.6489 42.4974 28.8346C41.7136 31.0203 40.6497 32.9538 39.3059 34.6351L60.4707 55.8197L55.7674 60.5274ZM21.8366 36.989C26.036 36.989 29.606 35.5184 32.5467 32.5772C35.4873 29.636 36.9565 26.0627 36.9543 21.8571C36.9521 17.6516 35.4829 14.0793 32.5467 11.1404C29.6105 8.20146 26.0405 6.72975 21.8366 6.72527C17.6328 6.72078 14.0639 8.1925 11.13 11.1404C8.19602 14.0883 6.72568 17.6606 6.71897 21.8571C6.71225 26.0537 8.18258 29.627 11.13 32.5772C14.0774 35.5273 17.6462 36.9979 21.8366 36.989Z" fill="#588539"/>
</svg>
