<svg width="92" height="91" viewBox="0 0 92 91" fill="none" xmlns="http://www.w3.org/2000/svg">
<path d="M73.278 68.8397C73.5413 69.103 73.7501 69.4155 73.8926 69.7595C74.0351 70.1035 74.1084 70.4722 74.1084 70.8445C74.1084 71.2168 74.0351 71.5855 73.8926 71.9295C73.7501 72.2735 73.5413 72.586 73.278 72.8493C73.0147 73.1126 72.7022 73.3214 72.3582 73.4639C72.0142 73.6064 71.6455 73.6797 71.2732 73.6797C70.9009 73.6797 70.5322 73.6064 70.1882 73.4639C69.8442 73.3214 69.5317 73.1126 69.2684 72.8493L45.7705 49.3478L22.2726 72.8493C21.7409 73.381 21.0198 73.6797 20.2678 73.6797C19.5159 73.6797 18.7947 73.381 18.263 72.8493C17.7313 72.3176 17.4326 71.5964 17.4326 70.8445C17.4326 70.0925 17.7313 69.3714 18.263 68.8397L41.7645 45.3418L18.263 21.8439C17.7313 21.3122 17.4326 20.5911 17.4326 19.8391C17.4326 19.0872 17.7313 18.366 18.263 17.8343C18.7947 17.3026 19.5159 17.0039 20.2678 17.0039C21.0198 17.0039 21.7409 17.3026 22.2726 17.8343L45.7705 41.3358L69.2684 17.8343C69.8001 17.3026 70.5213 17.0039 71.2732 17.0039C72.0251 17.0039 72.7463 17.3026 73.278 17.8343C73.8097 18.366 74.1084 19.0872 74.1084 19.8391C74.1084 20.5911 73.8097 21.3122 73.278 21.8439L49.7766 45.3418L73.278 68.8397Z" fill="#BBBBBB"/>
</svg>
